<svg width="42" height="49" viewBox="0 0 42 49" fill="none" xmlns="http://www.w3.org/2000/svg">
<path d="M40.8573 25.7299C40.2965 21.3232 38.694 17.3171 35.8898 14.0321C36.3705 13.3911 36.9313 12.9104 37.4922 12.3495C37.7326 12.5899 38.0531 12.9104 38.3735 12.9905C39.0145 13.2308 39.4953 12.5899 39.8157 12.1091C40.2164 11.5483 40.7772 10.9073 40.4567 10.1862C40.1362 9.38499 38.9344 8.6639 38.2934 8.10304C37.5723 7.54219 36.691 6.58072 35.7295 6.26023C34.9283 5.93975 34.2873 6.58072 33.8066 7.14157C33.406 7.6223 33.0054 8.02292 33.2457 8.66389C33.406 8.98438 33.5662 9.22475 33.8867 9.46511C33.406 9.94585 33.0054 10.4266 32.6048 10.9073C30.2812 9.30487 27.477 8.34341 24.6727 7.86267C24.5926 7.38194 24.5926 6.90121 24.5926 6.42048C24.9932 6.42048 25.3938 6.42048 25.7143 6.26023C26.5956 5.93975 26.6757 5.45902 26.6757 4.49755C26.7559 3.29572 26.9161 1.37279 25.8745 0.571569C24.6727 -0.309773 21.7883 0.0908447 20.4262 0.0908447C17.622 0.170967 13.7761 -0.63026 13.6159 2.97523C13.6159 3.69633 13.3755 5.37889 14.0165 5.93974C14.4171 6.26023 15.1382 6.42048 15.8593 6.5006C15.8593 6.98134 15.8593 7.54218 15.8593 8.02292C15.8593 8.10304 15.8593 8.10304 15.8593 8.18316C9.44951 9.86572 4.00121 14.3525 1.43731 20.7623C-1.68745 28.6143 0.315605 38.8699 7.12597 44.3182C9.68988 46.3212 12.4941 48.164 15.7791 48.6448C20.7467 49.3659 26.2751 49.1255 30.8421 46.6417C33.8867 45.0393 36.8512 42.1549 38.6139 39.1904C41.0176 35.5849 41.4182 30.0565 40.8573 25.7299ZM35.5693 7.54218C36.1301 7.6223 37.0916 8.66389 37.4922 8.98438C37.9729 9.38499 38.6139 9.7856 39.0145 10.2663C39.4151 10.8272 39.0946 11.388 38.6139 11.7886C37.8127 11.3079 37.0916 10.5868 36.3705 10.026C35.7295 9.54523 34.9283 8.98438 34.4476 8.26328C34.768 7.9428 35.1687 7.54218 35.5693 7.54218ZM34.7681 10.3464C35.0885 10.5868 35.4892 10.8272 35.8096 11.0676C36.05 11.3079 36.3705 11.4682 36.6109 11.7085C36.1301 12.1893 35.6494 12.7501 35.1687 13.2308C34.8482 12.8302 34.4476 12.5097 34.1271 12.1893C33.9668 12.029 33.7265 11.8688 33.5662 11.7085C33.8867 11.2278 34.3674 10.8272 34.7681 10.3464ZM14.6574 4.57767C14.5773 4.25718 14.5773 3.45596 14.6574 3.13547C14.8978 1.85352 15.6189 1.69327 16.9009 1.53303C18.0226 1.37279 19.2244 1.45291 20.3461 1.37279C21.3877 1.37279 22.4293 1.29267 23.4709 1.45292C24.5926 1.53304 25.0733 1.53304 25.3938 2.65475C25.554 3.05536 25.6341 4.25719 25.4739 4.6578C25.0733 5.69938 24.192 5.37889 23.0702 5.37889C21.7883 5.37889 20.5865 5.45901 19.3045 5.45901C18.1828 5.45901 15.1382 5.85962 14.6574 4.57767ZM16.981 6.66085C17.7822 6.66085 18.5834 6.58072 19.0641 6.58072C20.266 6.58072 21.5479 6.5006 22.7498 6.5006C22.9901 6.5006 23.2305 6.5006 23.4709 6.5006C23.4709 6.90121 23.4709 7.38194 23.551 7.78255C22.6696 7.70243 21.8684 7.62231 21.0672 7.62231C19.7051 7.62231 18.343 7.78256 16.981 8.10304C16.981 7.62231 16.981 7.14158 16.981 6.66085ZM38.9344 35.9855C37.8928 39.591 34.9283 42.4754 32.0439 44.7188C28.4384 47.3628 24.0317 48.0839 19.625 48.0038C15.699 47.9237 12.9749 47.1224 9.85012 45.0393C3.11987 40.5524 -0.165129 32.1396 1.67768 24.2877C3.76085 15.1538 11.8532 8.98438 21.0672 8.82414C30.0409 8.98438 37.1717 14.4327 39.335 23.2461C40.2965 27.2522 40.1362 31.9794 38.9344 35.9855Z" fill="#0093BE"/>
<path d="M31.0024 15.0736C30.9223 14.9935 30.9222 14.9935 30.9222 14.9935C24.6727 10.6669 16.4202 10.5067 10.3309 15.1537C4.56212 19.4803 2.15845 27.3323 4.08138 34.3029C5.92419 40.7928 14.5774 46.0808 21.0672 45.6802C23.1504 45.52 25.5541 45.1995 27.3168 44.0778C30.2813 42.3151 33.1657 39.3506 35.0886 36.5463C39.8959 29.3353 37.5724 20.2014 31.0024 15.0736ZM36.2904 25.169C37.1718 30.1365 35.4892 34.8638 32.0439 38.5494C29.8005 40.953 27.3969 43.3567 24.1119 44.0778C20.5064 44.879 16.9009 44.6386 13.6159 42.7958C9.93029 40.7127 5.76394 37.3475 4.96272 33.0209C4.08138 28.454 4.80248 23.4864 7.4465 19.7207C12.7346 12.1892 22.91 10.8272 30.2813 15.955C33.1657 18.1984 35.6494 21.4033 36.2904 25.169Z" fill="#0093BE"/>
<path d="M28.0378 19.8008C25.8745 21.9641 23.7913 24.1274 21.6281 26.2907C20.8268 25.6497 19.7051 25.4895 18.8238 26.2106C17.8623 27.0118 17.4617 28.9347 18.3431 29.8161C19.2244 30.6974 20.907 30.8577 21.8684 30.0564C22.7498 29.2552 22.8299 28.1335 22.269 27.172C24.4323 25.0088 26.5956 22.7653 28.7589 20.6021C29.3198 20.0412 28.5185 19.24 28.0378 19.8008ZM19.3045 29.1751C18.8238 28.7745 18.9039 27.813 19.2244 27.3323C19.7051 26.6913 20.5865 26.6913 21.0672 27.3323C21.0672 27.3323 21.0672 27.3323 21.1473 27.4124V27.4925C22.3492 28.6944 20.5865 30.1366 19.3045 29.1751Z" fill="#0093BE"/>
<path d="M14.0965 16.9165C10.3308 18.9196 8.40785 22.6052 7.44639 26.6113C7.28615 27.3324 8.32773 27.5727 8.48798 26.9318C9.36932 23.166 11.132 19.7208 14.5772 17.878C15.2983 17.4774 14.7375 16.5159 14.0965 16.9165Z" fill="#0093BE"/>
<path d="M7.68682 29.175C6.96572 29.175 6.96572 30.2968 7.68682 30.2968C8.40792 30.2968 8.40792 29.175 7.68682 29.175Z" fill="#0093BE"/>
<path d="M20.907 4.09688C20.907 3.53602 20.8269 3.05529 20.8269 2.49444C20.7467 1.77334 19.625 1.77334 19.7051 2.49444C19.7051 3.05529 19.7853 3.53602 19.7853 4.09688C19.7853 4.81797 20.907 4.81797 20.907 4.09688Z" fill="#0093BE"/>
<path d="M23.7112 3.69632C23.7112 3.29571 23.7112 2.81497 23.6311 2.41436C23.6311 1.69326 22.5094 1.69326 22.5094 2.41436C22.5094 2.81497 22.5094 3.29571 22.5895 3.69632C22.6696 4.41741 23.7914 4.41741 23.7112 3.69632Z" fill="#0093BE"/>
<path d="M17.622 4.09691C17.5419 3.61618 17.5419 3.13545 17.5419 2.65471C17.622 1.93362 16.5003 1.93362 16.4202 2.65471C16.4202 3.21557 16.4202 3.77642 16.5003 4.4174C16.6605 5.13849 17.7822 4.81801 17.622 4.09691Z" fill="#0093BE"/>
</svg>
