<svg width="42" height="42" viewBox="0 0 42 42" fill="none" xmlns="http://www.w3.org/2000/svg">
<circle cx="20.9706" cy="20.9706" r="20.9706" fill="#C13584"/>
<path d="M20.9704 10.6553C24.33 10.6553 24.728 10.6682 26.0548 10.7287C27.2815 10.7846 27.9478 10.9896 28.3911 11.1619C28.9784 11.3902 29.3976 11.6628 29.8379 12.1031C30.2782 12.5434 30.5508 12.9626 30.7791 13.5499C30.9514 13.9932 31.1564 14.6595 31.2123 15.8862C31.2728 17.213 31.2857 17.6109 31.2857 20.9705C31.2857 24.3302 31.2728 24.7281 31.2123 26.0549C31.1564 27.2816 30.9514 27.9479 30.7791 28.3912C30.5508 28.9785 30.2782 29.3977 29.8379 29.838C29.3976 30.2783 28.9784 30.5509 28.3911 30.7792C27.9478 30.9515 27.2815 31.1565 26.0548 31.2124C24.7282 31.2729 24.3303 31.2858 20.9704 31.2858C17.6105 31.2858 17.2127 31.2729 15.8861 31.2124C14.6593 31.1565 13.9931 30.9515 13.5497 30.7792C12.9624 30.5509 12.5432 30.2783 12.103 29.838C11.6627 29.3977 11.39 28.9785 11.1617 28.3912C10.9894 27.9479 10.7845 27.2816 10.7285 26.0549C10.668 24.7281 10.6551 24.3302 10.6551 20.9705C10.6551 17.6109 10.668 17.213 10.7285 15.8862C10.7845 14.6595 10.9894 13.9932 11.1617 13.5499C11.39 12.9626 11.6627 12.5434 12.103 12.1031C12.5432 11.6628 12.9624 11.3902 13.5497 11.1619C13.9931 10.9896 14.6593 10.7846 15.8861 10.7287C17.2128 10.6682 17.6108 10.6553 20.9704 10.6553ZM20.9704 8.38824C17.5533 8.38824 17.1248 8.40273 15.7827 8.46396C14.4435 8.52505 13.5288 8.73776 12.7285 9.04877C11.9011 9.37032 11.1994 9.80055 10.4999 10.5C9.80038 11.1996 9.37014 11.9013 9.04864 12.7287C8.73758 13.529 8.52486 14.4436 8.46378 15.7829C8.40255 17.1249 8.38806 17.5534 8.38806 20.9705C8.38806 24.3877 8.40255 24.8162 8.46378 26.1582C8.52486 27.4975 8.73758 28.4121 9.04864 29.2124C9.37014 30.0398 9.80038 30.7415 10.4999 31.4411C11.1994 32.1406 11.9011 32.5708 12.7285 32.8923C13.5288 33.2033 14.4435 33.4161 15.7827 33.4771C17.1248 33.5384 17.5533 33.5529 20.9704 33.5529C24.3876 33.5529 24.8161 33.5384 26.1581 33.4771C27.4973 33.4161 28.412 33.2033 29.2123 32.8923C30.0397 32.5708 30.7414 32.1406 31.441 31.4411C32.1404 30.7415 32.5707 30.0398 32.8922 29.2124C33.2032 28.4121 33.416 27.4975 33.477 26.1582C33.5383 24.8162 33.5528 24.3877 33.5528 20.9705C33.5528 17.5534 33.5383 17.1249 33.477 15.7829C33.416 14.4436 33.2032 13.529 32.8922 12.7287C32.5707 11.9013 32.1404 11.1996 31.441 10.5C30.7414 9.80055 30.0397 9.37032 29.2123 9.04877C28.412 8.73776 27.4973 8.52505 26.1581 8.46396C24.8161 8.40273 24.3876 8.38824 20.9704 8.38824Z" fill="white"/>
<path d="M20.9762 14.5152C17.4078 14.5152 14.515 17.4079 14.515 20.9764C14.515 24.5448 17.4078 27.4376 20.9762 27.4376C24.5447 27.4376 27.4374 24.5448 27.4374 20.9764C27.4374 17.4079 24.5447 14.5152 20.9762 14.5152ZM20.9762 25.1705C18.6599 25.1705 16.7821 23.2927 16.7821 20.9764C16.7821 18.66 18.6599 16.7823 20.9762 16.7823C23.2926 16.7823 25.1703 18.66 25.1703 20.9764C25.1703 23.2927 23.2926 25.1705 20.9762 25.1705Z" fill="white"/>
<path d="M29.2021 14.256C29.2021 15.0898 28.5261 15.7659 27.6922 15.7659C26.8584 15.7659 26.1824 15.0898 26.1824 14.256C26.1824 13.4221 26.8584 12.7461 27.6922 12.7461C28.5261 12.7461 29.2021 13.4221 29.2021 14.256Z" fill="white"/>
</svg>
