<svg width="42" height="42" viewBox="0 0 42 42" fill="none" xmlns="http://www.w3.org/2000/svg">
<circle cx="20.9706" cy="20.9706" r="20.9706" fill="#0077B5"/>
<path fill-rule="evenodd" clip-rule="evenodd" d="M15.4918 10.783C15.4918 12.0885 14.4978 13.145 12.9433 13.145C11.4493 13.145 10.4553 12.0885 10.486 10.783C10.4553 9.414 11.4493 8.38824 12.973 8.38824C14.4978 8.38824 15.462 9.414 15.4918 10.783ZM10.611 30.2176V15.011H15.337V30.2167H10.611V30.2176Z" fill="white"/>
<path fill-rule="evenodd" clip-rule="evenodd" d="M19.125 19.864C19.125 17.9673 19.0625 16.3503 19.0001 15.013H23.105L23.3232 17.0963H23.4165C24.0385 16.132 25.593 14.6718 28.1118 14.6718C31.2208 14.6718 33.553 16.7242 33.553 21.2003V30.2197H28.827V21.7925C28.827 19.8323 28.1435 18.496 26.4332 18.496C25.1268 18.496 24.35 19.3978 24.0395 20.2678C23.9145 20.5793 23.853 21.0138 23.853 21.4502V30.2197H19.1269V19.864H19.125Z" fill="white"/>
</svg>
